<?xml version="1.0" standalone="no"?>
<!DOCTYPE svg PUBLIC "-//W3C//DTD SVG 20010904//EN"
 "http://www.w3.org/TR/2001/REC-SVG-20010904/DTD/svg10.dtd">
<svg version="1.0" xmlns="http://www.w3.org/2000/svg"
 width="1024.000000pt" height="1024.000000pt" viewBox="0 0 1024.000000 1024.000000"
 preserveAspectRatio="xMidYMid meet">
<metadata>
Created by potrace 1.14, written by Peter Selinger 2001-2017
</metadata>
<g transform="translate(0.000000,1024.000000) scale(0.100000,-0.100000)"
fill="#000000" stroke="none">
<path d="M4445 8358 c-3 -18 -158 -969 -345 -2113 -187 -1144 -342 -2090 -345
-2102 l-5 -23 434 0 434 0 6 28 c3 15 159 965 346 2112 187 1147 342 2095 345
2108 l5 22 -434 0 -435 0 -6 -32z"/>
<path d="M5515 7650 c-8 -13 -455 -2742 -455 -2776 l0 -24 424 0 c329 0 427 3
433 13 10 16 462 2780 456 2790 -7 11 -851 9 -858 -3z"/>
<path d="M3092 7247 c-13 -16 -335 -1974 -327 -1987 10 -16 840 -13 853 3 12
15 334 1975 326 1988 -3 5 -183 9 -423 9 -331 0 -421 -3 -429 -13z"/>
<path d="M6632 7248 c-11 -15 -333 -1978 -326 -1990 3 -4 193 -8 423 -8 341 0
421 3 430 14 13 16 334 1964 327 1983 -8 19 -839 19 -854 1z"/>
<path d="M7565 3828 c-3 -7 -74 -350 -159 -763 -86 -412 -162 -780 -169 -818
l-15 -67 177 2 176 3 66 320 c36 177 75 341 86 365 54 118 131 179 236 187 77
5 122 -16 151 -72 32 -61 25 -132 -48 -478 -36 -175 -66 -320 -66 -322 0 -3
79 -5 175 -5 96 0 175 1 175 3 0 1 34 167 76 367 70 340 75 372 72 465 -3 81
-9 110 -30 156 -54 118 -153 180 -299 187 -138 7 -257 -30 -341 -106 -21 -19
-38 -32 -38 -30 0 3 27 136 60 296 33 159 60 297 60 306 0 14 -20 16 -170 16
-127 0 -172 -3 -175 -12z"/>
<path d="M2077 3768 c-8 -29 -327 -1577 -327 -1583 0 -3 80 -5 178 -5 l178 0
45 213 44 212 215 6 c236 7 312 20 433 78 77 37 182 115 231 173 56 64 111
163 142 253 25 71 28 95 28 210 1 115 -2 137 -23 190 -31 76 -122 170 -203
208 -116 55 -152 59 -559 64 l-376 5 -6 -24z m642 -309 c60 -13 124 -56 148
-101 24 -46 22 -147 -6 -219 -44 -115 -145 -189 -286 -209 -82 -11 -302 -13
-308 -2 -3 4 19 122 49 262 29 140 53 261 54 268 0 16 276 17 349 1z"/>
<path d="M3815 3340 c-229 -60 -400 -205 -499 -422 -50 -109 -69 -209 -64
-334 4 -97 7 -109 47 -188 48 -99 93 -143 196 -192 280 -134 697 -1 861 274
l25 42 -179 0 c-151 0 -182 -2 -193 -16 -22 -27 -85 -53 -156 -65 -152 -25
-263 53 -263 184 l0 27 424 0 424 0 16 66 c23 92 30 208 17 279 -34 180 -167
316 -349 354 -81 17 -227 13 -307 -9z m188 -265 c71 -11 130 -83 139 -170 l3
-30 -258 -3 -258 -2 22 40 c37 66 74 104 128 134 51 27 127 46 166 40 11 -1
37 -6 58 -9z"/>
<path d="M5185 3345 c-140 -30 -265 -101 -370 -210 -141 -145 -215 -323 -215
-520 0 -239 131 -401 363 -449 95 -20 151 -20 262 -1 203 36 398 163 484 316
l22 39 -179 0 c-151 0 -182 -2 -193 -16 -21 -25 -80 -51 -147 -64 -117 -23
-213 16 -253 105 -10 22 -19 55 -19 73 l0 32 424 0 423 0 12 43 c47 176 40
311 -25 439 -52 103 -174 190 -302 217 -70 15 -212 13 -287 -4z m168 -270 c71
-11 122 -74 142 -172 l7 -33 -262 0 -261 0 12 23 c31 61 90 124 139 151 47 26
132 46 170 39 8 -1 32 -5 53 -8z"/>
<path d="M6545 3345 c-139 -31 -249 -90 -357 -194 -121 -115 -190 -237 -222
-394 -30 -145 -16 -263 46 -379 53 -100 159 -177 288 -209 76 -19 249 -17 330
4 189 50 362 185 460 360 l32 57 -180 0 -180 0 -25 -33 c-39 -51 -118 -89
-199 -95 -84 -6 -144 14 -187 63 -94 107 -54 328 81 450 59 54 120 78 203 79
90 1 145 -27 176 -91 l21 -43 175 0 176 0 -5 64 c-14 175 -157 326 -346 365
-70 15 -212 13 -287 -4z"/>
</g>
</svg>
