<svg width="200" height="250" viewBox="0 0 200 250" fill="none" xmlns="http://www.w3.org/2000/svg">
<rect width="200" height="250" rx="24" fill="white"/>
<path d="M71.833 35.6353H69.1646C69.1199 35.6353 69.0898 35.5992 69.0967 35.5546L70.5564 26.489C70.5632 26.4443 70.6053 26.4082 70.65 26.4082H73.3185C73.3632 26.4082 73.3932 26.4443 73.3864 26.489L71.9267 35.5546C71.9198 35.5992 71.8777 35.6353 71.833 35.6353Z" fill="#FF5468"/>
<path d="M64.4268 34.3174H61.7583C61.7136 34.3174 61.6836 34.2813 61.6904 34.2366L62.7257 27.8077C62.7326 27.763 62.7747 27.7269 62.8193 27.7269H65.4878C65.5325 27.7269 65.5626 27.763 65.5557 27.8077L64.5204 34.2366C64.5136 34.2813 64.4715 34.3174 64.4268 34.3174Z" fill="#FF5468"/>
<path d="M75.8526 34.3174H73.1841C73.1394 34.3174 73.1093 34.2813 73.1162 34.2366L74.1515 27.8077C74.1583 27.763 74.2004 27.7269 74.2451 27.7269H76.9136C76.9583 27.7269 76.9883 27.763 76.9815 27.8077L75.9462 34.2366C75.9393 34.2813 75.8972 34.3174 75.8526 34.3174Z" fill="#FF5468"/>
<path d="M67.7187 38.0263H64.8887L67.1448 24.0172H69.9748L67.7187 38.0263Z" fill="#FF5468"/>
<g clip-path="url(#clip0_200_5892)">
<path d="M132.175 23.6704H129.141L126.184 37.9886H129.218L130.278 32.8579C130.598 31.3068 131.56 30.3693 132.702 30.3693C133.844 30.3693 134.285 31.2045 133.972 32.7215L132.884 37.9886H135.918L137.111 32.2102C137.683 29.4488 136.445 27.7613 134.127 27.7613C132.848 27.7613 131.833 28.2215 131.071 29.0227L132.175 23.6704Z" fill="#060606"/>
<path fill-rule="evenodd" clip-rule="evenodd" d="M81.7359 24.0965H87.0712C90.6848 24.0965 92.3842 26.1079 91.7501 29.1761C91.1161 32.2443 88.5814 34.2897 84.9661 34.2897H82.7331L81.9695 37.9886H78.8672L81.7359 24.0965ZM85.3973 31.5454C87.1189 31.5454 88.3274 30.7272 88.6479 29.1761C88.9649 27.642 88.0905 26.8409 86.3689 26.8409H84.2723L83.3007 31.5454H85.3973Z" fill="#060606"/>
<path fill-rule="evenodd" clip-rule="evenodd" d="M91.9497 32.9943C92.577 29.9602 95.1781 27.7613 98.2293 27.7613C101.28 27.7613 102.978 29.9431 102.347 32.9943C102.288 33.284 102.204 33.6079 102.078 33.9659H94.7656C94.7656 35.125 95.4287 35.7897 96.5707 35.7897C97.4401 35.7897 98.219 35.4829 98.5736 35.0056H101.625C100.72 36.9147 98.4884 38.2272 96.0679 38.2272C93.0168 38.2272 91.319 36.0454 91.9497 32.9943ZM99.5861 32.0056C99.5776 30.8125 98.9264 30.1647 97.7332 30.1647C96.5401 30.1647 95.6554 30.8125 95.1543 32.0056H99.5861Z" fill="#060606"/>
<path fill-rule="evenodd" clip-rule="evenodd" d="M109.905 27.7613C106.854 27.7613 104.253 29.9602 103.626 32.9943C102.995 36.0454 104.693 38.2272 107.744 38.2272C110.164 38.2272 112.396 36.9147 113.301 35.0056H110.25C109.895 35.4829 109.116 35.7897 108.247 35.7897C107.105 35.7897 106.442 35.125 106.442 33.9659H113.754C113.88 33.6079 113.964 33.284 114.024 32.9943C114.654 29.9431 112.957 27.7613 109.905 27.7613ZM109.409 30.1647C110.603 30.1647 111.254 30.8125 111.262 32.0056H106.83C107.332 30.8125 108.216 30.1647 109.409 30.1647Z" fill="#060606"/>
<path d="M119.522 38.2272C116.437 38.2272 114.675 36.0284 115.302 32.9943C115.929 29.9602 118.599 27.7613 121.684 27.7613C124.292 27.7613 125.908 29.4318 125.826 31.5625H122.758C122.661 30.8806 122.093 30.4034 121.138 30.4034C119.724 30.4034 118.578 31.4943 118.268 32.9943C117.958 34.4943 118.653 35.5852 120.068 35.5852C121.005 35.5852 121.803 35.1079 122.224 34.392H125.292C124.302 36.7102 122.045 38.2272 119.522 38.2272Z" fill="#060606"/>
</g>
<rect width="105" height="96" transform="translate(47.5 46.5)" fill="white"/>
<rect width="99.75" height="91.2" transform="translate(50.6504 49.38)" fill="white"/>
<rect width="99.75" height="91.2" transform="translate(50.6504 49.38)" fill="white"/>
<path d="M55.6375 75.22H52.3125V78.26H55.6375V75.22Z" fill="black"/>
<path d="M55.6375 93.46H52.3125V96.5H55.6375V93.46Z" fill="black"/>
<path d="M55.6375 105.62H52.3125V108.66H55.6375V105.62Z" fill="black"/>
<path d="M55.6375 108.66H52.3125V111.7H55.6375V108.66Z" fill="black"/>
<path d="M58.9617 75.22H55.6367V78.26H58.9617V75.22Z" fill="black"/>
<path d="M58.9617 87.38H55.6367V90.42H58.9617V87.38Z" fill="black"/>
<path d="M58.9617 108.66H55.6367V111.7H58.9617V108.66Z" fill="black"/>
<path d="M62.2879 78.26H58.9629V81.3H62.2879V78.26Z" fill="black"/>
<path d="M62.2879 96.5H58.9629V99.54H62.2879V96.5Z" fill="black"/>
<path d="M62.2879 99.54H58.9629V102.58H62.2879V99.54Z" fill="black"/>
<path d="M62.2879 108.66H58.9629V111.7H62.2879V108.66Z" fill="black"/>
<path d="M62.2879 111.7H58.9629V114.74H62.2879V111.7Z" fill="black"/>
<path d="M65.6121 78.26H62.2871V81.3H65.6121V78.26Z" fill="black"/>
<path d="M65.6121 84.34H62.2871V87.38H65.6121V84.34Z" fill="black"/>
<path d="M65.6121 87.38H62.2871V90.42H65.6121V87.38Z" fill="black"/>
<path d="M65.6121 93.46H62.2871V96.5H65.6121V93.46Z" fill="black"/>
<path d="M65.6121 96.5H62.2871V99.54H65.6121V96.5Z" fill="black"/>
<path d="M65.6121 102.58H62.2871V105.62H65.6121V102.58Z" fill="black"/>
<path d="M65.6121 108.66H62.2871V111.7H65.6121V108.66Z" fill="black"/>
<path d="M65.6121 111.7H62.2871V114.74H65.6121V111.7Z" fill="black"/>
<path d="M68.9383 81.3H65.6133V84.34H68.9383V81.3Z" fill="black"/>
<path d="M68.9383 93.46H65.6133V96.5H68.9383V93.46Z" fill="black"/>
<path d="M68.9383 96.5H65.6133V99.54H68.9383V96.5Z" fill="black"/>
<path d="M68.9383 99.54H65.6133V102.58H68.9383V99.54Z" fill="black"/>
<path d="M68.9383 108.66H65.6133V111.7H68.9383V108.66Z" fill="black"/>
<path d="M72.2625 78.26H68.9375V81.3H72.2625V78.26Z" fill="black"/>
<path d="M72.2625 81.3H68.9375V84.34H72.2625V81.3Z" fill="black"/>
<path d="M72.2625 87.38H68.9375V90.42H72.2625V87.38Z" fill="black"/>
<path d="M72.2625 90.42H68.9375V93.46H72.2625V90.42Z" fill="black"/>
<path d="M72.2625 99.54H68.9375V102.58H72.2625V99.54Z" fill="black"/>
<path d="M72.2625 105.62H68.9375V108.66H72.2625V105.62Z" fill="black"/>
<path d="M72.2625 111.7H68.9375V114.74H72.2625V111.7Z" fill="black"/>
<path d="M75.5867 75.22H72.2617V78.26H75.5867V75.22Z" fill="black"/>
<path d="M75.5867 81.3H72.2617V84.34H75.5867V81.3Z" fill="black"/>
<path d="M75.5867 87.38H72.2617V90.42H75.5867V87.38Z" fill="black"/>
<path d="M75.5867 93.46H72.2617V96.5H75.5867V93.46Z" fill="black"/>
<path d="M75.5867 99.54H72.2617V102.58H75.5867V99.54Z" fill="black"/>
<path d="M75.5867 105.62H72.2617V108.66H75.5867V105.62Z" fill="black"/>
<path d="M75.5867 111.7H72.2617V114.74H75.5867V111.7Z" fill="black"/>
<path d="M78.9129 78.26H75.5879V81.3H78.9129V78.26Z" fill="black"/>
<path d="M78.9129 84.34H75.5879V87.38H78.9129V84.34Z" fill="black"/>
<path d="M78.9129 90.42H75.5879V93.46H78.9129V90.42Z" fill="black"/>
<path d="M78.9129 93.46H75.5879V96.5H78.9129V93.46Z" fill="black"/>
<path d="M78.9129 96.5H75.5879V99.54H78.9129V96.5Z" fill="black"/>
<path d="M78.9129 99.54H75.5879V102.58H78.9129V99.54Z" fill="black"/>
<path d="M78.9129 111.7H75.5879V114.74H78.9129V111.7Z" fill="black"/>
<path d="M82.2371 53.94H78.9121V56.98H82.2371V53.94Z" fill="black"/>
<path d="M82.2371 69.14H78.9121V72.18H82.2371V69.14Z" fill="black"/>
<path d="M82.2371 72.18H78.9121V75.22H82.2371V72.18Z" fill="black"/>
<path d="M82.2371 75.22H78.9121V78.26H82.2371V75.22Z" fill="black"/>
<path d="M82.2371 78.26H78.9121V81.3H82.2371V78.26Z" fill="black"/>
<path d="M82.2371 81.3H78.9121V84.34H82.2371V81.3Z" fill="black"/>
<path d="M82.2371 90.42H78.9121V93.46H82.2371V90.42Z" fill="black"/>
<path d="M82.2371 96.5H78.9121V99.54H82.2371V96.5Z" fill="black"/>
<path d="M82.2371 99.54H78.9121V102.58H82.2371V99.54Z" fill="black"/>
<path d="M82.2371 105.62H78.9121V108.66H82.2371V105.62Z" fill="black"/>
<path d="M82.2371 114.74H78.9121V117.78H82.2371V114.74Z" fill="black"/>
<path d="M82.2371 132.98H78.9121V136.02H82.2371V132.98Z" fill="black"/>
<path d="M82.2371 136.02H78.9121V139.06H82.2371V136.02Z" fill="black"/>
<path d="M85.5633 56.98H82.2383V60.02H85.5633V56.98Z" fill="black"/>
<path d="M85.5633 60.02H82.2383V63.06H85.5633V60.02Z" fill="black"/>
<path d="M85.5633 66.1H82.2383V69.14H85.5633V66.1Z" fill="black"/>
<path d="M85.5633 72.18H82.2383V75.22H85.5633V72.18Z" fill="black"/>
<path d="M85.5633 78.26H82.2383V81.3H85.5633V78.26Z" fill="black"/>
<path d="M85.5633 84.34H82.2383V87.38H85.5633V84.34Z" fill="black"/>
<path d="M85.5633 93.46H82.2383V96.5H85.5633V93.46Z" fill="black"/>
<path d="M85.5633 96.5H82.2383V99.54H85.5633V96.5Z" fill="black"/>
<path d="M85.5633 111.7H82.2383V114.74H85.5633V111.7Z" fill="black"/>
<path d="M85.5633 114.74H82.2383V117.78H85.5633V114.74Z" fill="black"/>
<path d="M85.5633 123.86H82.2383V126.9H85.5633V123.86Z" fill="black"/>
<path d="M85.5633 126.9H82.2383V129.94H85.5633V126.9Z" fill="black"/>
<path d="M85.5633 132.98H82.2383V136.02H85.5633V132.98Z" fill="black"/>
<path d="M88.8875 53.94H85.5625V56.98H88.8875V53.94Z" fill="black"/>
<path d="M88.8875 56.98H85.5625V60.02H88.8875V56.98Z" fill="black"/>
<path d="M88.8875 60.02H85.5625V63.06H88.8875V60.02Z" fill="black"/>
<path d="M88.8875 66.1H85.5625V69.14H88.8875V66.1Z" fill="black"/>
<path d="M88.8875 69.14H85.5625V72.18H88.8875V69.14Z" fill="black"/>
<path d="M88.8875 78.26H85.5625V81.3H88.8875V78.26Z" fill="black"/>
<path d="M88.8875 81.3H85.5625V84.34H88.8875V81.3Z" fill="black"/>
<path d="M88.8875 84.34H85.5625V87.38H88.8875V84.34Z" fill="black"/>
<path d="M88.8875 90.42H85.5625V93.46H88.8875V90.42Z" fill="black"/>
<path d="M88.8875 93.46H85.5625V96.5H88.8875V93.46Z" fill="black"/>
<path d="M88.8875 96.5H85.5625V99.54H88.8875V96.5Z" fill="black"/>
<path d="M88.8875 105.62H85.5625V108.66H88.8875V105.62Z" fill="black"/>
<path d="M88.8875 114.74H85.5625V117.78H88.8875V114.74Z" fill="black"/>
<path d="M88.8875 117.78H85.5625V120.82H88.8875V117.78Z" fill="black"/>
<path d="M88.8875 123.86H85.5625V126.9H88.8875V123.86Z" fill="black"/>
<path d="M88.8875 126.9H85.5625V129.94H88.8875V126.9Z" fill="black"/>
<path d="M88.8875 129.94H85.5625V132.98H88.8875V129.94Z" fill="black"/>
<path d="M92.2117 50.9H88.8867V53.94H92.2117V50.9Z" fill="black"/>
<path d="M92.2117 53.94H88.8867V56.98H92.2117V53.94Z" fill="black"/>
<path d="M92.2117 72.18H88.8867V75.22H92.2117V72.18Z" fill="black"/>
<path d="M92.2117 75.22H88.8867V78.26H92.2117V75.22Z" fill="black"/>
<path d="M92.2117 81.3H88.8867V84.34H92.2117V81.3Z" fill="black"/>
<path d="M92.2117 117.78H88.8867V120.82H92.2117V117.78Z" fill="black"/>
<path d="M92.2117 120.82H88.8867V123.86H92.2117V120.82Z" fill="black"/>
<path d="M92.2117 123.86H88.8867V126.9H92.2117V123.86Z" fill="black"/>
<path d="M95.5379 60.02H92.2129V63.06H95.5379V60.02Z" fill="black"/>
<path d="M95.5379 66.1H92.2129V69.14H95.5379V66.1Z" fill="black"/>
<path d="M95.5379 69.14H92.2129V72.18H95.5379V69.14Z" fill="black"/>
<path d="M95.5379 72.18H92.2129V75.22H95.5379V72.18Z" fill="black"/>
<path d="M95.5379 75.22H92.2129V78.26H95.5379V75.22Z" fill="black"/>
<path d="M95.5379 78.26H92.2129V81.3H95.5379V78.26Z" fill="black"/>
<path d="M95.5379 81.3H92.2129V84.34H95.5379V81.3Z" fill="black"/>
<path d="M95.5379 111.7H92.2129V114.74H95.5379V111.7Z" fill="black"/>
<path d="M95.5379 114.74H92.2129V117.78H95.5379V114.74Z" fill="black"/>
<path d="M95.5379 117.78H92.2129V120.82H95.5379V117.78Z" fill="black"/>
<path d="M95.5379 132.98H92.2129V136.02H95.5379V132.98Z" fill="black"/>
<path d="M98.8621 50.9H95.5371V53.94H98.8621V50.9Z" fill="black"/>
<path d="M98.8621 56.98H95.5371V60.02H98.8621V56.98Z" fill="black"/>
<path d="M98.8621 63.06H95.5371V66.1H98.8621V63.06Z" fill="black"/>
<path d="M98.8621 66.1H95.5371V69.14H98.8621V66.1Z" fill="black"/>
<path d="M98.8621 78.26H95.5371V81.3H98.8621V78.26Z" fill="black"/>
<path d="M98.8621 108.66H95.5371V111.7H98.8621V108.66Z" fill="black"/>
<path d="M98.8621 111.7H95.5371V114.74H98.8621V111.7Z" fill="black"/>
<path d="M98.8621 117.78H95.5371V120.82H98.8621V117.78Z" fill="black"/>
<path d="M98.8621 123.86H95.5371V126.9H98.8621V123.86Z" fill="black"/>
<path d="M98.8621 126.9H95.5371V129.94H98.8621V126.9Z" fill="black"/>
<path d="M98.8621 136.02H95.5371V139.06H98.8621V136.02Z" fill="black"/>
<path d="M102.188 50.9H98.8633V53.94H102.188V50.9Z" fill="black"/>
<path d="M102.188 53.94H98.8633V56.98H102.188V53.94Z" fill="black"/>
<path d="M102.188 56.98H98.8633V60.02H102.188V56.98Z" fill="black"/>
<path d="M102.188 63.06H98.8633V66.1H102.188V63.06Z" fill="black"/>
<path d="M102.188 69.14H98.8633V72.18H102.188V69.14Z" fill="black"/>
<path d="M102.188 72.18H98.8633V75.22H102.188V72.18Z" fill="black"/>
<path d="M102.188 75.22H98.8633V78.26H102.188V75.22Z" fill="black"/>
<path d="M102.188 111.7H98.8633V114.74H102.188V111.7Z" fill="black"/>
<path d="M102.188 120.82H98.8633V123.86H102.188V120.82Z" fill="black"/>
<path d="M102.188 132.98H98.8633V136.02H102.188V132.98Z" fill="black"/>
<path d="M105.513 53.94H102.188V56.98H105.513V53.94Z" fill="black"/>
<path d="M105.513 56.98H102.188V60.02H105.513V56.98Z" fill="black"/>
<path d="M105.513 60.02H102.188V63.06H105.513V60.02Z" fill="black"/>
<path d="M105.513 63.06H102.188V66.1H105.513V63.06Z" fill="black"/>
<path d="M105.513 66.1H102.188V69.14H105.513V66.1Z" fill="black"/>
<path d="M105.513 72.18H102.188V75.22H105.513V72.18Z" fill="black"/>
<path d="M105.513 105.62H102.188V108.66H105.513V105.62Z" fill="black"/>
<path d="M105.513 117.78H102.188V120.82H105.513V117.78Z" fill="black"/>
<path d="M105.513 123.86H102.188V126.9H105.513V123.86Z" fill="black"/>
<path d="M105.513 126.9H102.188V129.94H105.513V126.9Z" fill="black"/>
<path d="M105.513 129.94H102.188V132.98H105.513V129.94Z" fill="black"/>
<path d="M105.513 132.98H102.188V136.02H105.513V132.98Z" fill="black"/>
<path d="M105.513 136.02H102.188V139.06H105.513V136.02Z" fill="black"/>
<path d="M108.837 50.9H105.512V53.94H108.837V50.9Z" fill="black"/>
<path d="M108.837 66.1H105.512V69.14H108.837V66.1Z" fill="black"/>
<path d="M108.837 69.14H105.512V72.18H108.837V69.14Z" fill="black"/>
<path d="M108.837 72.18H105.512V75.22H108.837V72.18Z" fill="black"/>
<path d="M108.837 81.3H105.512V84.34H108.837V81.3Z" fill="black"/>
<path d="M108.837 108.66H105.512V111.7H108.837V108.66Z" fill="black"/>
<path d="M108.837 111.7H105.512V114.74H108.837V111.7Z" fill="black"/>
<path d="M108.837 120.82H105.512V123.86H108.837V120.82Z" fill="black"/>
<path d="M108.837 126.9H105.512V129.94H108.837V126.9Z" fill="black"/>
<path d="M108.837 129.94H105.512V132.98H108.837V129.94Z" fill="black"/>
<path d="M108.837 136.02H105.512V139.06H108.837V136.02Z" fill="black"/>
<path d="M112.163 50.9H108.838V53.94H112.163V50.9Z" fill="black"/>
<path d="M112.163 53.94H108.838V56.98H112.163V53.94Z" fill="black"/>
<path d="M112.163 56.98H108.838V60.02H112.163V56.98Z" fill="black"/>
<path d="M112.163 60.02H108.838V63.06H112.163V60.02Z" fill="black"/>
<path d="M112.163 63.06H108.838V66.1H112.163V63.06Z" fill="black"/>
<path d="M112.163 66.1H108.838V69.14H112.163V66.1Z" fill="black"/>
<path d="M112.163 75.22H108.838V78.26H112.163V75.22Z" fill="black"/>
<path d="M112.163 81.3H108.838V84.34H112.163V81.3Z" fill="black"/>
<path d="M112.163 105.62H108.838V108.66H112.163V105.62Z" fill="black"/>
<path d="M112.163 108.66H108.838V111.7H112.163V108.66Z" fill="black"/>
<path d="M112.163 111.7H108.838V114.74H112.163V111.7Z" fill="black"/>
<path d="M112.163 120.82H108.838V123.86H112.163V120.82Z" fill="black"/>
<path d="M112.163 123.86H108.838V126.9H112.163V123.86Z" fill="black"/>
<path d="M112.163 126.9H108.838V129.94H112.163V126.9Z" fill="black"/>
<path d="M112.163 136.02H108.838V139.06H112.163V136.02Z" fill="black"/>
<path d="M115.487 50.9H112.162V53.94H115.487V50.9Z" fill="black"/>
<path d="M115.487 53.94H112.162V56.98H115.487V53.94Z" fill="black"/>
<path d="M115.487 63.06H112.162V66.1H115.487V63.06Z" fill="black"/>
<path d="M115.487 66.1H112.162V69.14H115.487V66.1Z" fill="black"/>
<path d="M115.487 69.14H112.162V72.18H115.487V69.14Z" fill="black"/>
<path d="M115.487 75.22H112.162V78.26H115.487V75.22Z" fill="black"/>
<path d="M115.487 84.34H112.162V87.38H115.487V84.34Z" fill="black"/>
<path d="M115.487 87.38H112.162V90.42H115.487V87.38Z" fill="black"/>
<path d="M115.487 93.46H112.162V96.5H115.487V93.46Z" fill="black"/>
<path d="M115.487 96.5H112.162V99.54H115.487V96.5Z" fill="black"/>
<path d="M115.487 105.62H112.162V108.66H115.487V105.62Z" fill="black"/>
<path d="M115.487 108.66H112.162V111.7H115.487V108.66Z" fill="black"/>
<path d="M115.487 123.86H112.162V126.9H115.487V123.86Z" fill="black"/>
<path d="M115.487 129.94H112.162V132.98H115.487V129.94Z" fill="black"/>
<path d="M115.487 136.02H112.162V139.06H115.487V136.02Z" fill="black"/>
<path d="M118.813 50.9H115.488V53.94H118.813V50.9Z" fill="black"/>
<path d="M118.813 66.1H115.488V69.14H118.813V66.1Z" fill="black"/>
<path d="M118.813 72.18H115.488V75.22H118.813V72.18Z" fill="black"/>
<path d="M118.813 78.26H115.488V81.3H118.813V78.26Z" fill="black"/>
<path d="M118.813 81.3H115.488V84.34H118.813V81.3Z" fill="black"/>
<path d="M118.813 87.38H115.488V90.42H118.813V87.38Z" fill="black"/>
<path d="M118.813 90.42H115.488V93.46H118.813V90.42Z" fill="black"/>
<path d="M118.813 105.62H115.488V108.66H118.813V105.62Z" fill="black"/>
<path d="M118.813 108.66H115.488V111.7H118.813V108.66Z" fill="black"/>
<path d="M118.813 111.7H115.488V114.74H118.813V111.7Z" fill="black"/>
<path d="M118.813 114.74H115.488V117.78H118.813V114.74Z" fill="black"/>
<path d="M118.813 117.78H115.488V120.82H118.813V117.78Z" fill="black"/>
<path d="M118.813 120.82H115.488V123.86H118.813V120.82Z" fill="black"/>
<path d="M118.813 126.9H115.488V129.94H118.813V126.9Z" fill="black"/>
<path d="M118.813 136.02H115.488V139.06H118.813V136.02Z" fill="black"/>
<path d="M122.138 50.9H118.812V53.94H122.138V50.9Z" fill="black"/>
<path d="M122.138 60.02H118.812V63.06H122.138V60.02Z" fill="black"/>
<path d="M122.138 63.06H118.812V66.1H122.138V63.06Z" fill="black"/>
<path d="M122.138 66.1H118.812V69.14H122.138V66.1Z" fill="black"/>
<path d="M122.138 69.14H118.812V72.18H122.138V69.14Z" fill="black"/>
<path d="M122.138 72.18H118.812V75.22H122.138V72.18Z" fill="black"/>
<path d="M122.138 75.22H118.812V78.26H122.138V75.22Z" fill="black"/>
<path d="M122.138 78.26H118.812V81.3H122.138V78.26Z" fill="black"/>
<path d="M122.138 81.3H118.812V84.34H122.138V81.3Z" fill="black"/>
<path d="M122.138 87.38H118.812V90.42H122.138V87.38Z" fill="black"/>
<path d="M122.138 93.46H118.812V96.5H122.138V93.46Z" fill="black"/>
<path d="M122.138 96.5H118.812V99.54H122.138V96.5Z" fill="black"/>
<path d="M122.138 102.58H118.812V105.62H122.138V102.58Z" fill="black"/>
<path d="M122.138 105.62H118.812V108.66H122.138V105.62Z" fill="black"/>
<path d="M122.138 111.7H118.812V114.74H122.138V111.7Z" fill="black"/>
<path d="M122.138 114.74H118.812V117.78H122.138V114.74Z" fill="black"/>
<path d="M122.138 117.78H118.812V120.82H122.138V117.78Z" fill="black"/>
<path d="M122.138 120.82H118.812V123.86H122.138V120.82Z" fill="black"/>
<path d="M122.138 123.86H118.812V126.9H122.138V123.86Z" fill="black"/>
<path d="M122.138 132.98H118.812V136.02H122.138V132.98Z" fill="black"/>
<path d="M122.138 136.02H118.812V139.06H122.138V136.02Z" fill="black"/>
<path d="M125.462 75.22H122.137V78.26H125.462V75.22Z" fill="black"/>
<path d="M125.462 87.38H122.137V90.42H125.462V87.38Z" fill="black"/>
<path d="M125.462 90.42H122.137V93.46H125.462V90.42Z" fill="black"/>
<path d="M125.462 93.46H122.137V96.5H125.462V93.46Z" fill="black"/>
<path d="M125.462 96.5H122.137V99.54H125.462V96.5Z" fill="black"/>
<path d="M125.462 105.62H122.137V108.66H125.462V105.62Z" fill="black"/>
<path d="M125.462 111.7H122.137V114.74H125.462V111.7Z" fill="black"/>
<path d="M125.462 123.86H122.137V126.9H125.462V123.86Z" fill="black"/>
<path d="M125.462 126.9H122.137V129.94H125.462V126.9Z" fill="black"/>
<path d="M125.462 129.94H122.137V132.98H125.462V129.94Z" fill="black"/>
<path d="M128.788 75.22H125.463V78.26H128.788V75.22Z" fill="black"/>
<path d="M128.788 90.42H125.463V93.46H128.788V90.42Z" fill="black"/>
<path d="M128.788 96.5H125.463V99.54H128.788V96.5Z" fill="black"/>
<path d="M128.788 99.54H125.463V102.58H128.788V99.54Z" fill="black"/>
<path d="M128.788 105.62H125.463V108.66H128.788V105.62Z" fill="black"/>
<path d="M128.788 108.66H125.463V111.7H128.788V108.66Z" fill="black"/>
<path d="M128.788 111.7H125.463V114.74H128.788V111.7Z" fill="black"/>
<path d="M128.788 117.78H125.463V120.82H128.788V117.78Z" fill="black"/>
<path d="M128.788 123.86H125.463V126.9H128.788V123.86Z" fill="black"/>
<path d="M132.112 81.3H128.787V84.34H132.112V81.3Z" fill="black"/>
<path d="M132.112 96.5H128.787V99.54H132.112V96.5Z" fill="black"/>
<path d="M132.112 108.66H128.787V111.7H132.112V108.66Z" fill="black"/>
<path d="M132.112 111.7H128.787V114.74H132.112V111.7Z" fill="black"/>
<path d="M132.112 123.86H128.787V126.9H132.112V123.86Z" fill="black"/>
<path d="M132.112 126.9H128.787V129.94H132.112V126.9Z" fill="black"/>
<path d="M132.112 132.98H128.787V136.02H132.112V132.98Z" fill="black"/>
<path d="M132.112 136.02H128.787V139.06H132.112V136.02Z" fill="black"/>
<path d="M135.438 87.38H132.113V90.42H135.438V87.38Z" fill="black"/>
<path d="M135.438 96.5H132.113V99.54H135.438V96.5Z" fill="black"/>
<path d="M135.438 99.54H132.113V102.58H135.438V99.54Z" fill="black"/>
<path d="M135.438 102.58H132.113V105.62H135.438V102.58Z" fill="black"/>
<path d="M135.438 105.62H132.113V108.66H135.438V105.62Z" fill="black"/>
<path d="M135.438 108.66H132.113V111.7H135.438V108.66Z" fill="black"/>
<path d="M135.438 111.7H132.113V114.74H135.438V111.7Z" fill="black"/>
<path d="M135.438 114.74H132.113V117.78H135.438V114.74Z" fill="black"/>
<path d="M135.438 117.78H132.113V120.82H135.438V117.78Z" fill="black"/>
<path d="M135.438 120.82H132.113V123.86H135.438V120.82Z" fill="black"/>
<path d="M135.438 123.86H132.113V126.9H135.438V123.86Z" fill="black"/>
<path d="M138.763 81.3H135.438V84.34H138.763V81.3Z" fill="black"/>
<path d="M138.763 84.34H135.438V87.38H138.763V84.34Z" fill="black"/>
<path d="M138.763 99.54H135.438V102.58H138.763V99.54Z" fill="black"/>
<path d="M138.763 102.58H135.438V105.62H138.763V102.58Z" fill="black"/>
<path d="M138.763 108.66H135.438V111.7H138.763V108.66Z" fill="black"/>
<path d="M138.763 111.7H135.438V114.74H138.763V111.7Z" fill="black"/>
<path d="M138.763 120.82H135.438V123.86H138.763V120.82Z" fill="black"/>
<path d="M138.763 129.94H135.438V132.98H138.763V129.94Z" fill="black"/>
<path d="M138.763 132.98H135.438V136.02H138.763V132.98Z" fill="black"/>
<path d="M142.087 84.34H138.762V87.38H142.087V84.34Z" fill="black"/>
<path d="M142.087 90.42H138.762V93.46H142.087V90.42Z" fill="black"/>
<path d="M142.087 93.46H138.762V96.5H142.087V93.46Z" fill="black"/>
<path d="M142.087 102.58H138.762V105.62H142.087V102.58Z" fill="black"/>
<path d="M142.087 108.66H138.762V111.7H142.087V108.66Z" fill="black"/>
<path d="M142.087 111.7H138.762V114.74H142.087V111.7Z" fill="black"/>
<path d="M142.087 114.74H138.762V117.78H142.087V114.74Z" fill="black"/>
<path d="M142.087 117.78H138.762V120.82H142.087V117.78Z" fill="black"/>
<path d="M142.087 120.82H138.762V123.86H142.087V120.82Z" fill="black"/>
<path d="M142.087 123.86H138.762V126.9H142.087V123.86Z" fill="black"/>
<path d="M142.087 126.9H138.762V129.94H142.087V126.9Z" fill="black"/>
<path d="M142.087 132.98H138.762V136.02H142.087V132.98Z" fill="black"/>
<path d="M145.413 75.22H142.088V78.26H145.413V75.22Z" fill="black"/>
<path d="M145.413 84.34H142.088V87.38H145.413V84.34Z" fill="black"/>
<path d="M145.413 96.5H142.088V99.54H145.413V96.5Z" fill="black"/>
<path d="M145.413 105.62H142.088V108.66H145.413V105.62Z" fill="black"/>
<path d="M145.413 108.66H142.088V111.7H145.413V108.66Z" fill="black"/>
<path d="M145.413 114.74H142.088V117.78H145.413V114.74Z" fill="black"/>
<path d="M145.413 123.86H142.088V126.9H145.413V123.86Z" fill="black"/>
<path d="M145.413 126.9H142.088V129.94H145.413V126.9Z" fill="black"/>
<path d="M145.413 129.94H142.088V132.98H145.413V129.94Z" fill="black"/>
<path d="M145.413 136.02H142.088V139.06H145.413V136.02Z" fill="black"/>
<path d="M148.737 81.3H145.412V84.34H148.737V81.3Z" fill="black"/>
<path d="M148.737 84.34H145.412V87.38H148.737V84.34Z" fill="black"/>
<path d="M148.737 93.46H145.412V96.5H148.737V93.46Z" fill="black"/>
<path d="M148.737 102.58H145.412V105.62H148.737V102.58Z" fill="black"/>
<path d="M148.737 114.74H145.412V117.78H148.737V114.74Z" fill="black"/>
<path d="M148.737 123.86H145.412V126.9H148.737V123.86Z" fill="black"/>
<path d="M55.6375 50.9H52.3125V53.94H55.6375V50.9Z" fill="black"/>
<path d="M55.6375 53.94H52.3125V56.98H55.6375V53.94Z" fill="black"/>
<path d="M55.6375 56.98H52.3125V60.02H55.6375V56.98Z" fill="black"/>
<path d="M55.6375 60.02H52.3125V63.06H55.6375V60.02Z" fill="black"/>
<path d="M55.6375 63.06H52.3125V66.1H55.6375V63.06Z" fill="black"/>
<path d="M55.6375 66.1H52.3125V69.14H55.6375V66.1Z" fill="black"/>
<path d="M55.6375 69.14H52.3125V72.18H55.6375V69.14Z" fill="black"/>
<path d="M58.9617 50.9H55.6367V53.94H58.9617V50.9Z" fill="black"/>
<path d="M58.9617 69.14H55.6367V72.18H58.9617V69.14Z" fill="black"/>
<path d="M62.2879 50.9H58.9629V53.94H62.2879V50.9Z" fill="black"/>
<path d="M62.2879 69.14H58.9629V72.18H62.2879V69.14Z" fill="black"/>
<path d="M65.6121 50.9H62.2871V53.94H65.6121V50.9Z" fill="black"/>
<path d="M65.6121 69.14H62.2871V72.18H65.6121V69.14Z" fill="black"/>
<path d="M68.9383 50.9H65.6133V53.94H68.9383V50.9Z" fill="black"/>
<path d="M68.9383 69.14H65.6133V72.18H68.9383V69.14Z" fill="black"/>
<path d="M72.2625 50.9H68.9375V53.94H72.2625V50.9Z" fill="black"/>
<path d="M72.2625 69.14H68.9375V72.18H72.2625V69.14Z" fill="black"/>
<path d="M75.5867 50.9H72.2617V53.94H75.5867V50.9Z" fill="black"/>
<path d="M75.5867 53.94H72.2617V56.98H75.5867V53.94Z" fill="black"/>
<path d="M75.5867 56.98H72.2617V60.02H75.5867V56.98Z" fill="black"/>
<path d="M75.5867 60.02H72.2617V63.06H75.5867V60.02Z" fill="black"/>
<path d="M75.5867 63.06H72.2617V66.1H75.5867V63.06Z" fill="black"/>
<path d="M75.5867 66.1H72.2617V69.14H75.5867V66.1Z" fill="black"/>
<path d="M75.5867 69.14H72.2617V72.18H75.5867V69.14Z" fill="black"/>
<path d="M62.2879 56.98H58.9629V60.02H62.2879V56.98Z" fill="black"/>
<path d="M62.2879 60.02H58.9629V63.06H62.2879V60.02Z" fill="black"/>
<path d="M62.2879 63.06H58.9629V66.1H62.2879V63.06Z" fill="black"/>
<path d="M65.6121 56.98H62.2871V60.02H65.6121V56.98Z" fill="black"/>
<path d="M65.6121 60.02H62.2871V63.06H65.6121V60.02Z" fill="black"/>
<path d="M65.6121 63.06H62.2871V66.1H65.6121V63.06Z" fill="black"/>
<path d="M68.9383 56.98H65.6133V60.02H68.9383V56.98Z" fill="black"/>
<path d="M68.9383 60.02H65.6133V63.06H68.9383V60.02Z" fill="black"/>
<path d="M68.9383 63.06H65.6133V66.1H68.9383V63.06Z" fill="black"/>
<path d="M128.788 50.9H125.463V53.94H128.788V50.9Z" fill="black"/>
<path d="M128.788 53.94H125.463V56.98H128.788V53.94Z" fill="black"/>
<path d="M128.788 56.98H125.463V60.02H128.788V56.98Z" fill="black"/>
<path d="M128.788 60.02H125.463V63.06H128.788V60.02Z" fill="black"/>
<path d="M128.788 63.06H125.463V66.1H128.788V63.06Z" fill="black"/>
<path d="M128.788 66.1H125.463V69.14H128.788V66.1Z" fill="black"/>
<path d="M128.788 69.14H125.463V72.18H128.788V69.14Z" fill="black"/>
<path d="M132.112 50.9H128.787V53.94H132.112V50.9Z" fill="black"/>
<path d="M132.112 69.14H128.787V72.18H132.112V69.14Z" fill="black"/>
<path d="M135.438 50.9H132.113V53.94H135.438V50.9Z" fill="black"/>
<path d="M135.438 69.14H132.113V72.18H135.438V69.14Z" fill="black"/>
<path d="M138.763 50.9H135.438V53.94H138.763V50.9Z" fill="black"/>
<path d="M138.763 69.14H135.438V72.18H138.763V69.14Z" fill="black"/>
<path d="M142.089 50.9H138.764V53.94H142.089V50.9Z" fill="black"/>
<path d="M142.089 69.14H138.764V72.18H142.089V69.14Z" fill="black"/>
<path d="M145.413 50.9H142.088V53.94H145.413V50.9Z" fill="black"/>
<path d="M145.413 69.14H142.088V72.18H145.413V69.14Z" fill="black"/>
<path d="M148.737 50.9H145.412V53.94H148.737V50.9Z" fill="black"/>
<path d="M148.737 53.94H145.412V56.98H148.737V53.94Z" fill="black"/>
<path d="M148.737 56.98H145.412V60.02H148.737V56.98Z" fill="black"/>
<path d="M148.737 60.02H145.412V63.06H148.737V60.02Z" fill="black"/>
<path d="M148.737 63.06H145.412V66.1H148.737V63.06Z" fill="black"/>
<path d="M148.737 66.1H145.412V69.14H148.737V66.1Z" fill="black"/>
<path d="M148.737 69.14H145.412V72.18H148.737V69.14Z" fill="black"/>
<path d="M135.438 56.98H132.113V60.02H135.438V56.98Z" fill="black"/>
<path d="M135.438 60.02H132.113V63.06H135.438V60.02Z" fill="black"/>
<path d="M135.438 63.06H132.113V66.1H135.438V63.06Z" fill="black"/>
<path d="M138.763 56.98H135.438V60.02H138.763V56.98Z" fill="black"/>
<path d="M138.763 60.02H135.438V63.06H138.763V60.02Z" fill="black"/>
<path d="M138.763 63.06H135.438V66.1H138.763V63.06Z" fill="black"/>
<path d="M142.089 56.98H138.764V60.02H142.089V56.98Z" fill="black"/>
<path d="M142.089 60.02H138.764V63.06H142.089V60.02Z" fill="black"/>
<path d="M142.089 63.06H138.764V66.1H142.089V63.06Z" fill="black"/>
<path d="M55.6375 117.78H52.3125V120.82H55.6375V117.78Z" fill="black"/>
<path d="M55.6375 120.82H52.3125V123.86H55.6375V120.82Z" fill="black"/>
<path d="M55.6375 123.86H52.3125V126.9H55.6375V123.86Z" fill="black"/>
<path d="M55.6375 126.9H52.3125V129.94H55.6375V126.9Z" fill="black"/>
<path d="M55.6375 129.94H52.3125V132.98H55.6375V129.94Z" fill="black"/>
<path d="M55.6375 132.98H52.3125V136.02H55.6375V132.98Z" fill="black"/>
<path d="M55.6375 136.02H52.3125V139.06H55.6375V136.02Z" fill="black"/>
<path d="M58.9617 117.78H55.6367V120.82H58.9617V117.78Z" fill="black"/>
<path d="M58.9617 136.02H55.6367V139.06H58.9617V136.02Z" fill="black"/>
<path d="M62.2879 117.78H58.9629V120.82H62.2879V117.78Z" fill="black"/>
<path d="M62.2879 136.02H58.9629V139.06H62.2879V136.02Z" fill="black"/>
<path d="M65.6121 117.78H62.2871V120.82H65.6121V117.78Z" fill="black"/>
<path d="M65.6121 136.02H62.2871V139.06H65.6121V136.02Z" fill="black"/>
<path d="M68.9383 117.78H65.6133V120.82H68.9383V117.78Z" fill="black"/>
<path d="M68.9383 136.02H65.6133V139.06H68.9383V136.02Z" fill="black"/>
<path d="M72.2625 117.78H68.9375V120.82H72.2625V117.78Z" fill="black"/>
<path d="M72.2625 136.02H68.9375V139.06H72.2625V136.02Z" fill="black"/>
<path d="M75.5867 117.78H72.2617V120.82H75.5867V117.78Z" fill="black"/>
<path d="M75.5867 120.82H72.2617V123.86H75.5867V120.82Z" fill="black"/>
<path d="M75.5867 123.86H72.2617V126.9H75.5867V123.86Z" fill="black"/>
<path d="M75.5867 126.9H72.2617V129.94H75.5867V126.9Z" fill="black"/>
<path d="M75.5867 129.94H72.2617V132.98H75.5867V129.94Z" fill="black"/>
<path d="M75.5867 132.98H72.2617V136.02H75.5867V132.98Z" fill="black"/>
<path d="M75.5867 136.02H72.2617V139.06H75.5867V136.02Z" fill="black"/>
<path d="M62.2879 123.86H58.9629V126.9H62.2879V123.86Z" fill="black"/>
<path d="M62.2879 126.9H58.9629V129.94H62.2879V126.9Z" fill="black"/>
<path d="M62.2879 129.94H58.9629V132.98H62.2879V129.94Z" fill="black"/>
<path d="M65.6121 123.86H62.2871V126.9H65.6121V123.86Z" fill="black"/>
<path d="M65.6121 126.9H62.2871V129.94H65.6121V126.9Z" fill="black"/>
<path d="M65.6121 129.94H62.2871V132.98H65.6121V129.94Z" fill="black"/>
<path d="M68.9383 123.86H65.6133V126.9H68.9383V123.86Z" fill="black"/>
<path d="M68.9383 126.9H65.6133V129.94H68.9383V126.9Z" fill="black"/>
<path d="M68.9383 129.94H65.6133V132.98H68.9383V129.94Z" fill="black"/>
<g clip-path="url(#clip1_200_5892)">
<rect width="21.945" height="17.328" transform="translate(89.5527 86.316)" fill="white"/>
<path d="M105.824 89.6676L107.624 86.8169C107.726 86.6571 107.664 86.4541 107.492 86.3612C107.319 86.2683 107.095 86.3223 106.996 86.4821L105.172 89.3696C103.781 88.7886 102.215 88.4647 100.531 88.4647C98.8466 88.4647 97.2805 88.7886 95.8892 89.3696L94.0657 86.4821C93.9641 86.3223 93.7421 86.2683 93.5673 86.3612C93.3925 86.4541 93.3334 86.6571 93.435 86.8169L95.2349 89.6676C92.1311 91.2053 90.0289 94.0776 89.6816 97.4401H111.38C111.033 94.0775 108.93 91.2052 105.824 89.6676ZM95.5491 94.6542C95.046 94.6542 94.6397 94.2806 94.6397 93.8227C94.6397 93.3627 95.0483 92.9913 95.5491 92.9913C96.0522 92.9913 96.4585 93.3649 96.4585 93.8227C96.4609 94.2806 96.0522 94.6542 95.5491 94.6542ZM105.51 94.6542C105.007 94.6542 104.601 94.2806 104.601 93.8227C104.601 93.3627 105.009 92.9913 105.51 92.9913C106.013 92.9913 106.42 93.3649 106.42 93.8227C106.422 94.2806 106.013 94.6542 105.51 94.6542Z" fill="#32DE84"/>
</g>
<path d="M37.3486 163.396H38.6885L39.7412 164.764C40.4795 164.121 40.9443 163.034 40.9443 161.551C40.9443 158.994 39.5498 157.613 37.7588 157.613C35.9678 157.613 34.5732 158.994 34.5732 161.551C34.5732 164.107 35.9678 165.488 37.7588 165.488C38.1279 165.488 38.4834 165.427 38.8115 165.311L37.3486 163.396ZM42.1338 161.551C42.1338 163.396 41.4912 164.839 40.4521 165.707L41.7373 167.43H40.3975L39.5361 166.268C38.9961 166.514 38.4014 166.637 37.7588 166.637C35.2158 166.637 33.3838 164.682 33.3838 161.551C33.3838 158.42 35.2158 156.465 37.7588 156.465C40.2881 156.465 42.1338 158.42 42.1338 161.551ZM43.9385 166.5V156.602H47.3018C49.626 156.602 50.6787 157.887 50.6787 159.65C50.6787 160.956 50.0908 161.988 48.833 162.426L51.0615 166.5H49.626L47.5615 162.645L47.3154 162.658H45.1689V166.5H43.9385ZM45.1689 161.537H47.2607C48.833 161.537 49.4619 160.826 49.4619 159.65C49.4619 158.461 48.833 157.695 47.2471 157.695H45.1689V161.537ZM61.5752 156.643V157.818C61.5615 159.295 61.5752 160.963 61.0693 163.438L60.0166 163.314C60.2559 162.214 60.3789 161.25 60.4541 160.389L53.0166 160.84L52.8389 159.896L60.4951 159.582C60.5225 158.939 60.5225 158.358 60.5225 157.818V157.531H53.1943V156.643H61.5752ZM62.9287 165.037V165.953H51.8545V165.037H56.2021V161.893H57.2549V165.037H62.9287ZM73.7705 161.305V162.193H65.376V156.588H73.6475V157.477H66.4424V161.305H73.7705ZM75.083 165.051V165.953H63.9541V165.051H75.083ZM87.1689 161.1V161.947H76.04V161.1H87.1689ZM85.7744 162.918V165.502H78.4736V166.664H86.1709V167.443H77.3936V164.764H84.708V163.725H77.3799V162.918H85.7744ZM85.7334 155.822V158.338H78.5557V159.404H85.9521V160.184H77.4893V157.6H84.6533V156.602H77.4482V155.822H85.7334ZM97.7236 157.244C97.7236 159.322 100.103 161.182 102.222 161.578L101.729 162.48C99.8975 162.057 97.9629 160.751 97.1768 158.953C96.3906 160.744 94.4629 162.05 92.624 162.48L92.1318 161.578C94.2373 161.168 96.6025 159.336 96.6025 157.244V156.314H97.7236V157.244ZM102.796 165.064V165.953H91.667V165.064H102.796ZM114.089 155.467V164.6H113.063V160.129H111.409V164.203H110.384V155.699H111.409V159.227H113.063V155.467H114.089ZM114.472 166.445V167.348H106.091V163.492H107.157V166.445H114.472ZM109.194 156.506C109.194 159.459 107.841 161.824 104.423 163.246L103.89 162.467C105.674 161.735 106.836 160.758 107.485 159.568L104.04 159.951L103.862 159.035L107.841 158.775C107.998 158.338 108.087 157.873 108.128 157.395H104.45V156.506H109.194ZM121.937 157.559V158.434H115.839V157.559H118.368V155.822H119.435V157.559H121.937ZM118.888 159.254C120.419 159.254 121.513 160.402 121.526 162.016C121.513 163.643 120.419 164.805 118.888 164.805C117.37 164.805 116.276 163.643 116.276 162.016C116.276 160.402 117.37 159.254 118.888 159.254ZM118.888 160.156C117.931 160.17 117.233 160.949 117.233 162.016C117.233 163.096 117.931 163.875 118.888 163.861C119.858 163.875 120.569 163.096 120.569 162.016C120.569 160.949 119.858 160.17 118.888 160.156ZM126.216 155.453V167.607H125.19V161.469H123.577V167.006H122.565V155.754H123.577V160.58H125.19V155.453H126.216ZM139.095 165.16V166.049H127.966V165.16H132.97V162.535H129.278V156.314H130.358V158.516H136.675V156.314H137.728V162.535H134.022V165.16H139.095ZM130.358 161.66H136.675V159.391H130.358V161.66ZM143.675 158.912C143.675 160.84 144.618 162.932 146.231 163.889L145.616 164.723C144.447 164.012 143.606 162.713 143.183 161.236C142.731 162.85 141.829 164.237 140.612 164.982L139.929 164.176C141.61 163.191 142.636 161.031 142.636 158.953V156.602H143.675V158.912ZM150.483 155.453V167.607H149.444V155.453H150.483ZM147.968 155.713V166.992H146.956V160.73H144.892V159.814H146.956V155.713H147.968ZM163.294 165.146V166.049H152.165V165.146H154.927V161.865C153.888 161.325 153.259 160.45 153.259 159.35C153.259 157.463 155.104 156.232 157.702 156.219C160.3 156.232 162.146 157.463 162.146 159.35C162.146 160.43 161.537 161.298 160.532 161.838V165.146H163.294ZM157.702 157.107C155.706 157.094 154.298 157.996 154.298 159.35C154.298 160.703 155.706 161.619 157.702 161.619C159.685 161.619 161.106 160.703 161.106 159.35C161.106 157.996 159.685 157.094 157.702 157.107ZM155.979 165.146H159.452V162.248C158.926 162.392 158.338 162.467 157.702 162.467C157.08 162.467 156.499 162.398 155.979 162.262V165.146ZM165.55 166.582C165.071 166.582 164.661 166.186 164.675 165.693C164.661 165.215 165.071 164.818 165.55 164.818C166.028 164.818 166.425 165.215 166.425 165.693C166.425 166.186 166.028 166.582 165.55 166.582Z" fill="#6D6F78"/>
<path d="M27.9912 180C30.1357 179.982 31.6826 181.512 31.7002 183.709C31.6826 185.889 30.1357 187.418 27.9912 187.418C25.8467 187.418 24.3174 185.889 24.3174 183.709C24.3174 181.512 25.8467 179.982 27.9912 180ZM27.9912 181.811C27.0068 181.793 26.3213 182.479 26.3213 183.709C26.3213 184.887 27.0068 185.572 27.9912 185.572C28.958 185.572 29.6436 184.887 29.6611 183.709C29.6436 182.479 28.958 181.793 27.9912 181.811ZM37.9932 179.139V187.822H35.8662V184.289H34.5303V187.717H32.4385V179.42H34.5303V182.461H35.8662V179.139H37.9932ZM29.2744 188.473V189.932H35.7783V188.473H37.9932V194.941H27.0596V188.473H29.2744ZM29.2744 193.148H35.7783V191.707H29.2744V193.148ZM53.6729 179.121V195.117H51.5283V179.121H53.6729ZM50.333 179.35V194.379H48.2236V186.82H46.9404C46.7295 189.967 45.3936 191.865 43.4248 191.865C41.3154 191.865 39.9443 189.65 39.9443 186.047C39.9443 182.461 41.3154 180.264 43.4248 180.264C45.3496 180.264 46.668 182.057 46.9229 185.045H48.2236V179.35H50.333ZM43.4248 182.373C42.5283 182.373 42.001 183.604 42.0186 186.047C42.001 188.508 42.5283 189.721 43.4248 189.703C44.3389 189.721 44.8838 188.508 44.8838 186.047C44.8838 183.604 44.3389 182.373 43.4248 182.373ZM61.4072 182.742C61.4072 185.748 62.6201 188.666 65.292 189.826L63.9209 191.619C62.1455 190.749 60.959 189.158 60.2998 187.189C59.5967 189.281 58.3662 190.995 56.5381 191.9L55.1318 190.072C57.874 188.842 59.1221 185.748 59.1396 182.742V180.352H61.4072V182.742ZM68.8604 179.121V195.152H66.6455V185.959H63.499V184.148H66.6455V179.121H68.8604ZM83.1162 180.527V182.355H78.0889V189.457C80.418 189.431 82.0967 189.325 83.9775 188.982L84.2061 190.793C82.0088 191.215 80.0752 191.303 77.1221 191.285H75.8213V180.527H83.1162ZM88.583 179.121V195.152H86.3506V186.486H82.3252V184.658H86.3506V179.121H88.583ZM105.212 186.645V188.402H99.0068V189.844H103.437V195.117H101.204V191.602H92.2393V189.844H96.792V188.402H90.6221V186.645H105.212ZM97.917 179.438C101.433 179.42 103.718 180.65 103.735 182.619C103.718 184.57 101.433 185.783 97.917 185.783C94.3838 185.783 92.0811 184.57 92.0811 182.619C92.0811 180.65 94.3838 179.42 97.917 179.438ZM97.917 181.178C95.6846 181.178 94.4014 181.688 94.4189 182.619C94.4014 183.551 95.6846 184.025 97.917 184.025C100.132 184.025 101.415 183.551 101.415 182.619C101.415 181.688 100.132 181.178 97.917 181.178ZM123.81 179.121V190.898H121.577V186.961H119.538V185.115H121.577V183.727H119.538V181.934H121.577V179.121H123.81ZM119.257 180.264V182.057H117.938V186.908C118.475 186.873 119.002 186.82 119.503 186.768L119.591 188.402C116.603 188.895 113.087 188.965 110.556 188.965L110.327 187.137L112.032 187.119V182.057H110.731V180.264H119.257ZM124.196 193.043V194.836H113.175V190.02H115.425V193.043H124.196ZM114.194 187.084L115.794 187.031V182.057H114.194V187.084ZM139.296 179.121V195.152H137.063V179.121H139.296ZM134.339 180.457V186.627H129.065V189.562C131.5 189.554 133.574 189.413 135.921 189.035L136.114 190.846C133.478 191.303 131.104 191.408 128.187 191.408H126.745V184.852H132.054V182.268H126.728V180.457H134.339ZM154.062 179.121V185.379H156.417V187.225H154.062V195.117H151.847V179.121H154.062ZM150.757 181.512V183.305H141.353V181.512H144.974V179.367H147.224V181.512H150.757ZM146.099 184.201C148.437 184.201 150.177 185.783 150.177 188.016C150.177 190.248 148.437 191.83 146.099 191.83C143.743 191.83 142.003 190.248 142.003 188.016C142.003 185.783 143.743 184.201 146.099 184.201ZM146.099 186.012C144.974 186.029 144.147 186.785 144.147 188.016C144.147 189.264 144.974 190.002 146.099 189.984C147.224 190.002 148.032 189.264 148.032 188.016C148.032 186.785 147.224 186.029 146.099 186.012ZM170.866 179.121V195.117H168.757V179.121H170.866ZM167.456 179.473V194.414H165.364V187.066H162.745C161.831 188.895 160.346 190.477 158.069 191.795L156.804 190.213C160.029 188.297 161.453 185.968 161.761 182.83H157.683V181.02H163.993C163.984 182.54 163.826 183.973 163.448 185.291H165.364V179.473H167.456ZM37.4482 208.742C37.4307 211.607 38.6611 214.508 41.2275 215.738L39.874 217.531C38.1602 216.688 37.0088 215.105 36.3408 213.172C35.6465 215.246 34.4072 216.942 32.5967 217.83L31.208 216.02C33.915 214.771 35.1982 211.713 35.1982 208.742V206.352H37.4482V208.742ZM44.1807 205.121V211.291H46.5361V213.189H44.1807V221.117H41.9307V205.121H44.1807ZM61.7061 212.697V214.49H47.1162V212.697H50.4033V210.781C49.2344 210.263 48.5752 209.472 48.5752 208.443C48.5752 206.51 50.8428 205.35 54.4111 205.35C57.9443 205.35 60.2119 206.51 60.2295 208.443C60.2207 209.48 59.5352 210.289 58.3486 210.799V212.697H61.7061ZM54.3936 215.334C57.8564 215.334 59.9482 216.354 59.9658 218.199C59.9482 220.08 57.8564 221.1 54.3936 221.1C50.8779 221.1 48.7861 220.08 48.7861 218.199C48.7861 216.354 50.8779 215.334 54.3936 215.334ZM54.3936 217.021C52.1787 217.021 51.0537 217.408 51.0713 218.199C51.0537 219.025 52.1787 219.43 54.3936 219.43C56.5557 219.43 57.6982 219.025 57.7158 218.199C57.6982 217.408 56.5557 217.021 54.3936 217.021ZM54.4111 207.072C52.1436 207.072 50.8955 207.547 50.9131 208.443C50.8955 209.322 52.1436 209.762 54.4111 209.762C56.6436 209.762 57.9092 209.322 57.9092 208.443C57.9092 207.547 56.6436 207.072 54.4111 207.072ZM52.6709 212.697H56.1162V211.361C55.5889 211.423 55.0176 211.449 54.4111 211.449C53.7871 211.449 53.207 211.423 52.6709 211.344V212.697ZM75.3643 205.086V208.566H77.5264V210.359H75.3643V213.752H73.1143V205.086H75.3643ZM75.3643 214.402V218.445H66.9795V219.359H75.8213V221.012H64.7822V216.916H73.1318V216.02H64.7471V214.402H75.3643ZM72.165 206.316V208.021H62.6729V206.316H66.3115V205.016H68.5439V206.316H72.165ZM67.4189 208.408C69.8096 208.408 71.3564 209.428 71.3564 211.027C71.3564 212.662 69.8096 213.646 67.4189 213.646C65.0283 213.646 63.4463 212.662 63.4463 211.027C63.4463 209.428 65.0283 208.408 67.4189 208.408ZM67.4189 209.99C66.3115 209.99 65.626 210.359 65.6436 211.027C65.626 211.713 66.3115 212.047 67.4189 212.047C68.5264 212.047 69.2295 211.713 69.2295 211.027C69.2295 210.359 68.5264 209.99 67.4189 209.99ZM90.8682 206.369C90.8682 208.25 92.7842 210.342 96.458 210.799L95.5791 212.609C92.7842 212.205 90.7363 210.913 89.6904 209.182C88.6357 210.913 86.6055 212.205 83.8369 212.609L82.9404 210.799C86.5791 210.342 88.5127 208.25 88.5127 206.369V205.596H90.8682V206.369ZM96.9678 213.822V215.65H90.7451V221.117H88.5303V215.65H82.3779V213.822H96.9678ZM107.901 215.387C107.901 216.679 108.438 218.006 109.747 218.885C111.065 217.953 111.646 216.573 111.646 215.387V214.842H113.86V215.387C113.843 217.057 114.739 218.604 116.866 219.254L115.776 220.889C114.247 220.37 113.245 219.395 112.7 218.164C112.164 219.395 111.232 220.467 109.8 221.029C108.288 220.484 107.348 219.447 106.829 218.217C106.267 219.412 105.282 220.379 103.823 220.889L102.716 219.254C104.825 218.533 105.704 216.951 105.722 215.387V214.842H107.901V215.387ZM115.478 205.139V214.174H113.228V205.139H115.478ZM106.706 205.947C109.202 205.947 111.083 207.529 111.083 209.797C111.083 212.029 109.202 213.611 106.706 213.611C104.21 213.611 102.329 212.029 102.329 209.797C102.329 207.529 104.21 205.947 106.706 205.947ZM106.706 207.828C105.423 207.828 104.509 208.566 104.526 209.797C104.509 211.01 105.423 211.748 106.706 211.748C107.954 211.748 108.868 211.01 108.868 209.797C108.868 208.566 107.954 207.828 106.706 207.828ZM121.56 214.719V216.072H128.151V214.719H130.384V220.941H119.345V214.719H121.56ZM121.56 219.184H128.151V217.777H121.56V219.184ZM132.229 212.1V213.91H117.64V212.1H132.229ZM126.095 205.824C126.095 207.424 127.94 209.234 131.509 209.639L130.718 211.396C127.958 211.045 125.963 209.902 124.935 208.355C123.906 209.902 121.902 211.045 119.169 211.396L118.36 209.639C121.929 209.217 123.774 207.459 123.792 205.824V205.279H126.095V205.824ZM146.644 205.121V221.117H144.411V205.121H146.644ZM136.272 206.65V215.246C138.435 215.22 140.755 215.018 143.11 214.561L143.392 216.406C140.579 216.986 137.942 217.18 135.464 217.162H134.058V206.65H136.272ZM161.374 205.121V211.062H163.729V212.891H161.374V221.152H159.124V205.121H161.374ZM156.892 206.598V208.408H151.618V215.422C153.938 215.396 155.854 215.29 157.981 214.912L158.228 216.793C155.749 217.215 153.569 217.285 150.739 217.268H149.386V206.598H156.892ZM166.384 219.658C165.558 219.658 164.89 218.99 164.907 218.182C164.89 217.373 165.558 216.723 166.384 216.723C167.157 216.723 167.843 217.373 167.843 218.182C167.843 218.99 167.157 219.658 166.384 219.658Z" fill="#3B3E43"/>
<defs>
<clipPath id="clip0_200_5892">
<rect width="61.3636" height="15" fill="white" transform="translate(77.3359 23.5)"/>
</clipPath>
<clipPath id="clip1_200_5892">
<rect width="21.945" height="17.328" fill="white" transform="translate(89.5527 86.316)"/>
</clipPath>
</defs>
</svg>
