<svg width="184" height="26" viewBox="0 0 184 26" fill="none" xmlns="http://www.w3.org/2000/svg">
<path d="M33.5505 20.7257H29.103C29.0286 20.7257 28.9785 20.6656 28.9899 20.5911L31.4227 5.48177C31.4342 5.40731 31.5043 5.34717 31.5788 5.34717H36.0262C36.1007 5.34717 36.1508 5.40731 36.1394 5.48177L33.7066 20.5911C33.6951 20.6656 33.625 20.7257 33.5505 20.7257Z" fill="#FF5468"/>
<path d="M21.2087 18.529H16.7612C16.6868 18.529 16.6367 18.4688 16.6481 18.3944L18.3735 7.67952C18.385 7.60506 18.4552 7.54492 18.5296 7.54492H22.9771C23.0515 7.54492 23.1017 7.60506 23.0902 7.67952L21.3648 18.3944C21.3533 18.4688 21.2832 18.529 21.2087 18.529Z" fill="#FF5468"/>
<path d="M40.2517 18.529H35.8042C35.7297 18.529 35.6796 18.4688 35.6911 18.3944L37.4165 7.67952C37.428 7.60506 37.4981 7.54492 37.5726 7.54492H42.0201C42.0945 7.54492 42.1446 7.60506 42.1332 7.67952L40.4077 18.3944C40.3963 18.4688 40.3261 18.529 40.2517 18.529Z" fill="#FF5468"/>
<path d="M26.6952 24.7105H21.9785L25.7387 1.36206H30.4553L26.6952 24.7105Z" fill="#FF5468"/>
<g clip-path="url(#clip0_78_2000)">
<path d="M134.128 0.78418H129.071L124.142 24.6478H129.199L130.966 16.0967C131.5 13.5115 133.102 11.949 135.006 11.949C136.909 11.949 137.645 13.341 137.122 15.8694L135.31 24.6478H140.366L142.355 15.0171C143.307 10.4149 141.244 7.60236 137.381 7.60236C135.25 7.60236 133.557 8.36941 132.287 9.70463L134.128 0.78418Z" fill="#060606"/>
<path fill-rule="evenodd" clip-rule="evenodd" d="M50.0625 1.49441H58.9545C64.9773 1.49441 67.8097 4.84668 66.7528 9.96032C65.696 15.074 61.4716 18.483 55.446 18.483H51.7244L50.4517 24.6478H45.2812L50.0625 1.49441ZM56.1648 13.9092C59.0341 13.9092 61.0483 12.5455 61.5824 9.96032C62.1108 7.4035 60.6534 6.06827 57.7841 6.06827H54.2898L52.6705 13.9092H56.1648Z" fill="#060606"/>
<path fill-rule="evenodd" clip-rule="evenodd" d="M67.0855 16.324C68.1309 11.2671 72.4662 7.60236 77.5514 7.60236C82.6366 7.60236 85.4662 11.2387 84.415 16.324C84.3156 16.8069 84.1764 17.3467 83.9662 17.9433H71.7787C71.7787 19.8751 72.8838 20.983 74.7872 20.983C76.236 20.983 77.5343 20.4717 78.1252 19.6762H83.2105C81.702 22.858 77.9832 25.0455 73.9491 25.0455C68.8639 25.0455 66.0343 21.4092 67.0855 16.324ZM79.8127 14.6762C79.7985 12.6876 78.7133 11.608 76.7247 11.608C74.736 11.608 73.2616 12.6876 72.4264 14.6762H79.8127Z" fill="#060606"/>
<path fill-rule="evenodd" clip-rule="evenodd" d="M97.0116 7.60236C91.9264 7.60236 87.5912 11.2671 86.5457 16.324C85.4946 21.4092 88.3241 25.0455 93.4093 25.0455C97.4434 25.0455 101.162 22.858 102.671 19.6762H97.5855C96.9946 20.4717 95.6963 20.983 94.2474 20.983C92.344 20.983 91.2389 19.8751 91.2389 17.9433H103.426C103.637 17.3467 103.776 16.8069 103.875 16.324C104.926 11.2387 102.097 7.60236 97.0116 7.60236ZM96.1849 11.608C98.1735 11.608 99.2588 12.6876 99.273 14.6762H91.8866C92.7218 12.6876 94.1963 11.608 96.1849 11.608Z" fill="#060606"/>
<path d="M113.04 25.0455C107.898 25.0455 104.961 21.3808 106.006 16.324C107.051 11.2671 111.5 7.60236 116.642 7.60236C120.989 7.60236 123.682 10.3865 123.546 13.9376H118.432C118.27 12.8012 117.324 12.0058 115.733 12.0058C113.375 12.0058 111.466 13.824 110.949 16.324C110.432 18.824 111.591 20.6421 113.949 20.6421C115.512 20.6421 116.841 19.8467 117.543 18.6535H122.657C121.006 22.5171 117.245 25.0455 113.04 25.0455Z" fill="#060606"/>
</g>
<defs>
<clipPath id="clip0_78_2000">
<rect width="102.273" height="25" fill="white" transform="translate(42.7246 0.5)"/>
</clipPath>
</defs>
</svg>
